<svg width="48" height="48" viewBox="0 0 48 48" fill="none" xmlns="http://www.w3.org/2000/svg">
<path d="M31.6374 26.3951C30.5009 27.9538 29.3066 29.5918 28.6522 31.4937H19.3507C18.6934 29.5696 17.4754 27.9072 16.3186 26.3283L16.3057 26.3107L16.3054 26.3103C15.9788 25.8657 15.6567 25.427 15.3475 24.983L15.347 24.9823C14.163 23.2888 13.4692 21.2258 13.4692 19C13.4692 13.2025 18.1828 8.5 24 8.5C29.817 8.5 34.5308 13.2023 34.5308 19.0062C34.5308 21.2316 33.8373 23.2887 32.6526 24.9892L32.6525 24.9893C32.3434 25.4332 32.0212 25.8719 31.6947 26.3165L31.6936 26.318L31.6374 26.3951ZM28.514 35C28.514 37.485 26.4954 39.5 24 39.5C21.5046 39.5 19.486 37.485 19.486 35V34.5H28.514V35ZM17.9832 20.5C18.8096 20.5 19.486 19.8275 19.486 19C19.486 16.515 21.5046 14.5 24 14.5C24.8264 14.5 25.5028 13.8275 25.5028 13C25.5028 12.1725 24.8264 11.5 24 11.5C19.8456 11.5 16.4804 14.8538 16.4804 19C16.4804 19.8275 17.1568 20.5 17.9832 20.5Z" stroke="#70E61C"/>
</svg>
