<svg xmlns="http://www.w3.org/2000/svg" xmlns:xlink="http://www.w3.org/1999/xlink" viewBox="0,0,256,256" width="60px" height="60px"><g fill="#ffffff" fill-rule="nonzero" stroke="none" stroke-width="1" stroke-linecap="butt" stroke-linejoin="miter" stroke-miterlimit="10" stroke-dasharray="" stroke-dashoffset="0" font-family="none" font-weight="none" font-size="none" text-anchor="none" style="mix-blend-mode: normal"><g transform="scale(10.66667,10.66667)"><path d="M3.427,5.352c-0.042,-1.223 0.887,-2.352 2.142,-2.352h12.863c1.255,0 2.184,1.129 2.142,2.352c-0.04,1.176 0.012,2.698 0.385,3.94c0.375,1.246 1.007,1.607 2.041,1.708v2c-1.034,0.101 -1.666,0.462 -2.04,1.707c-0.373,1.242 -0.425,2.765 -0.385,3.94c0.041,1.224 -0.888,2.353 -2.143,2.353h-12.863c-1.255,0 -2.184,-1.129 -2.142,-2.352c0.04,-1.176 -0.012,-2.698 -0.385,-3.94c-0.375,-1.246 -1.008,-1.607 -2.042,-1.708v-2c1.034,-0.101 1.667,-0.462 2.042,-1.707c0.373,-1.242 0.425,-2.765 0.385,-3.941z"></path><path d="M8,17v-9.967h4.135c0.907,0 1.684,0.245 2.243,0.708c0.579,0.479 0.885,1.149 0.885,1.939c0,0.804 -0.438,1.559 -1.087,1.993c0.958,0.41 1.557,1.285 1.557,2.368c0,0.905 -0.341,1.661 -0.984,2.184c-0.628,0.507 -1.524,0.775 -2.595,0.775zM11.85,15.267c1.725,0 1.725,-0.92 1.725,-1.223c0,-0.517 -0.188,-1.204 -1.811,-1.204h-1.639v2.427zM11.466,11.093c0.762,0 1.671,-0.194 1.671,-1.12c0,-0.679 -0.457,-1.022 -1.359,-1.022h-1.652v2.143h1.34z"></path></g></g></svg>