<svg style="background-color:rgb(20,29,47)" width="160.2" height="112.502" viewBox="0 0 160.2 112.502" xmlns="http://www.w3.org/2000/svg">
<g id="svgGroup" stroke-linecap="round" fill-rule="evenodd" font-size="9pt" stroke="#000" stroke-width="0.25mm" fill="#000" style="stroke:#000;stroke-width:0.25mm;fill:#000">
<path     stroke="#70E61C"
            fill="#70E61C" d="M 0 63.001 L 0 49.401 Q 4.744 49.207 7.051 47.373 A 6.114 6.114 0 0 0 7.2 47.251 A 6.334 6.334 0 0 0 9.338 43.497 A 9.463 9.463 0 0 0 9.5 41.701 A 25.973 25.973 0 0 0 9.452 40.266 Q 9.321 37.957 8.833 33.753 A 320.928 320.928 0 0 0 8.5 31.001 A 83.077 83.077 0 0 1 8.448 30.576 Q 8.332 29.599 8.037 27.044 A 3986.861 3986.861 0 0 1 7.9 25.851 A 82.317 82.317 0 0 1 7.533 21.836 Q 7.408 19.932 7.401 18.227 A 49.585 49.585 0 0 1 7.4 18.001 Q 7.4 9.501 12.6 4.751 A 17.597 17.597 0 0 1 20.699 0.614 A 25.928 25.928 0 0 1 26.5 0.001 L 33.7 0.001 L 33.7 14.001 L 29.8 14.001 A 11.536 11.536 0 0 0 28.163 14.108 Q 26.247 14.384 25.237 15.364 A 3.476 3.476 0 0 0 25.2 15.401 A 4.316 4.316 0 0 0 24.195 17.043 Q 23.954 17.724 23.86 18.562 A 10.225 10.225 0 0 0 23.8 19.701 Q 23.8 21.834 24.552 29.232 A 530.268 530.268 0 0 0 24.6 29.701 Q 25.335 37.625 25.47 41.077 A 34.725 34.725 0 0 1 25.5 42.401 A 18.766 18.766 0 0 1 25.079 46.482 A 13.188 13.188 0 0 1 22.85 51.501 Q 20.2 55.101 14.8 56.101 L 14.8 56.301 A 16.76 16.76 0 0 1 18.326 57.408 Q 20.932 58.577 22.578 60.602 A 10.647 10.647 0 0 1 22.85 60.951 A 12.831 12.831 0 0 1 25.028 65.741 Q 25.5 67.738 25.5 70.101 Q 25.5 73.101 24.6 82.801 A 381.252 381.252 0 0 0 24.288 85.872 Q 23.914 89.725 23.827 91.681 A 23.333 23.333 0 0 0 23.8 92.701 A 9.567 9.567 0 0 0 23.93 94.333 Q 24.083 95.214 24.415 95.908 A 4.306 4.306 0 0 0 25.2 97.051 A 4.126 4.126 0 0 0 26.702 98.016 Q 27.95 98.501 29.8 98.501 L 33.7 98.501 L 33.7 112.501 L 26.5 112.501 Q 17.8 112.501 12.6 107.751 A 15.494 15.494 0 0 1 7.908 99.4 A 23.284 23.284 0 0 1 7.4 94.401 Q 7.4 90.901 7.9 86.551 A 3770.401 3770.401 0 0 1 8.073 85.044 Q 8.357 82.588 8.462 81.71 A 68.319 68.319 0 0 1 8.5 81.401 A 308.73 308.73 0 0 0 8.89 78.154 Q 9.393 73.75 9.481 71.542 A 21.248 21.248 0 0 0 9.5 70.701 A 8.131 8.131 0 0 0 9.128 68.183 A 6.591 6.591 0 0 0 7.2 65.251 A 7.42 7.42 0 0 0 4.954 63.911 Q 3.896 63.494 2.576 63.264 A 19.7 19.7 0 0 0 0 63.001 Z" id="0" vector-effect="non-scaling-stroke"/>
<path stroke="#ffffff"
            fill="#ffffff" d="M 80.2 92.101 Q 70.3 92.101 62.05 87.501 Q 53.8 82.901 48.95 74.651 A 35.449 35.449 0 0 1 44.143 58.014 A 42.572 42.572 0 0 1 44.1 56.101 A 37.48 37.48 0 0 1 45.995 44.046 A 33.924 33.924 0 0 1 48.95 37.601 Q 53.8 29.401 62.05 24.801 Q 70.3 20.201 80.2 20.201 Q 90.1 20.201 98.35 24.801 Q 106.6 29.401 111.35 37.601 A 35.538 35.538 0 0 1 116.021 53.48 A 42.998 42.998 0 0 1 116.1 56.101 Q 116.1 66.401 111.3 74.651 Q 106.5 82.901 98.3 87.501 Q 90.1 92.101 80.2 92.101 Z M 80.2 76.501 A 20.374 20.374 0 0 0 86.362 75.612 A 16.25 16.25 0 0 0 93.65 70.901 A 19.09 19.09 0 0 0 98.103 62 A 27.674 27.674 0 0 0 98.7 56.101 A 27.846 27.846 0 0 0 98.048 49.901 Q 96.885 44.806 93.65 41.251 A 16.69 16.69 0 0 0 82.743 35.836 A 23.235 23.235 0 0 0 80.2 35.701 A 21.219 21.219 0 0 0 74.142 36.523 A 16.277 16.277 0 0 0 66.65 41.201 Q 61.721 46.569 61.603 55.653 A 34.478 34.478 0 0 0 61.6 56.101 A 27.846 27.846 0 0 0 62.252 62.301 Q 63.415 67.395 66.65 70.951 Q 71.7 76.501 80.2 76.501 Z M 70.1 14.801 Q 67 14.801 64.9 12.701 A 7.046 7.046 0 0 1 62.801 7.597 A 9.082 9.082 0 0 1 62.8 7.501 A 7.555 7.555 0 0 1 63.428 4.394 A 7.313 7.313 0 0 1 64.9 2.251 A 6.957 6.957 0 0 1 69.955 0.102 A 8.838 8.838 0 0 1 70.1 0.101 A 7.998 7.998 0 0 1 72.774 0.532 A 6.938 6.938 0 0 1 75.4 2.201 A 7.092 7.092 0 0 1 77.49 7.056 A 9.412 9.412 0 0 1 77.5 7.501 A 7.344 7.344 0 0 1 76.911 10.472 A 7.046 7.046 0 0 1 75.35 12.701 Q 73.2 14.801 70.1 14.801 Z M 90.1 14.801 Q 87 14.801 84.9 12.701 A 7.046 7.046 0 0 1 82.801 7.597 A 9.082 9.082 0 0 1 82.8 7.501 A 7.555 7.555 0 0 1 83.428 4.394 A 7.313 7.313 0 0 1 84.9 2.251 A 6.957 6.957 0 0 1 89.955 0.102 A 8.838 8.838 0 0 1 90.1 0.101 A 7.998 7.998 0 0 1 92.774 0.532 A 6.938 6.938 0 0 1 95.4 2.201 A 7.092 7.092 0 0 1 97.49 7.056 A 9.412 9.412 0 0 1 97.5 7.501 A 7.344 7.344 0 0 1 96.911 10.472 A 7.046 7.046 0 0 1 95.35 12.701 Q 93.2 14.801 90.1 14.801 Z" id="1" vector-effect="non-scaling-stroke"/>
<path   stroke="#9747FF"
            fill="#9747FF" d="M 133.7 112.501 L 126.5 112.501 L 126.5 98.501 L 130.4 98.501 Q 132.263 98.501 133.516 98.009 A 4.116 4.116 0 0 0 135 97.051 Q 136.127 95.883 136.347 93.776 A 10.382 10.382 0 0 0 136.4 92.701 A 25.731 25.731 0 0 0 136.362 91.441 Q 136.225 88.738 135.6 82.801 Q 134.865 74.877 134.73 71.424 A 34.725 34.725 0 0 1 134.7 70.101 A 19.412 19.412 0 0 1 135.073 66.189 Q 135.694 63.17 137.35 60.951 A 11.233 11.233 0 0 1 141.737 57.47 Q 143.324 56.737 145.274 56.327 A 20.452 20.452 0 0 1 145.4 56.301 L 145.4 56.101 A 16.029 16.029 0 0 1 141.874 55.046 A 10.942 10.942 0 0 1 137.35 51.501 A 13.214 13.214 0 0 1 135.104 46.408 A 18.834 18.834 0 0 1 134.7 42.401 Q 134.7 39.401 135.6 29.701 Q 136.4 21.901 136.4 19.701 A 9.542 9.542 0 0 0 136.277 18.111 Q 136.135 17.275 135.831 16.613 A 4.135 4.135 0 0 0 135 15.401 A 4.106 4.106 0 0 0 133.565 14.494 Q 132.338 14.016 130.514 14.001 A 14.406 14.406 0 0 0 130.4 14.001 L 126.5 14.001 L 126.5 0.001 L 133.7 0.001 Q 142.4 0.001 147.6 4.751 Q 152.8 9.501 152.8 18.001 Q 152.8 21.501 152.3 25.851 A 3770.401 3770.401 0 0 1 152.127 27.357 Q 151.843 29.814 151.738 30.692 A 68.319 68.319 0 0 1 151.7 31.001 A 308.73 308.73 0 0 0 151.31 34.247 Q 150.807 38.652 150.719 40.859 A 21.248 21.248 0 0 0 150.7 41.701 A 9.025 9.025 0 0 0 150.972 43.981 A 6.238 6.238 0 0 0 153 47.251 A 7.452 7.452 0 0 0 155.142 48.487 Q 157.112 49.253 160.012 49.392 A 25.558 25.558 0 0 0 160.2 49.401 L 160.2 63.001 A 19.748 19.748 0 0 0 157.649 63.26 Q 154.706 63.768 153.059 65.199 A 6.129 6.129 0 0 0 153 65.251 A 6.756 6.756 0 0 0 150.736 69.872 A 9.352 9.352 0 0 0 150.7 70.701 A 25.973 25.973 0 0 0 150.748 72.136 Q 150.879 74.444 151.367 78.649 A 320.928 320.928 0 0 0 151.7 81.401 A 83.077 83.077 0 0 1 151.752 81.826 Q 151.868 82.803 152.163 85.358 A 3986.861 3986.861 0 0 1 152.3 86.551 A 82.317 82.317 0 0 1 152.667 90.565 Q 152.792 92.469 152.799 94.174 A 49.585 49.585 0 0 1 152.8 94.401 A 22.854 22.854 0 0 1 152.186 99.858 A 15.385 15.385 0 0 1 147.6 107.751 A 17.597 17.597 0 0 1 139.501 111.887 A 25.928 25.928 0 0 1 133.7 112.501 Z" id="2" vector-effect="non-scaling-stroke"/></g></svg>