<?xml version="1.0" encoding="utf-8"?>
<!-- Generator: Adobe Illustrator 16.0.0, SVG Export Plug-In . SVG Version: 6.00 Build 0)  -->
<!DOCTYPE svg PUBLIC "-//W3C//DTD SVG 1.1//EN" "http://www.w3.org/Graphics/SVG/1.1/DTD/svg11.dtd">
<svg version="1.1" id="Ebene_1" xmlns="http://www.w3.org/2000/svg" xmlns:xlink="http://www.w3.org/1999/xlink" x="0px" y="0px"
	 width="316.301px" height="92.102px" viewBox="0 0 316.301 92.102" enable-background="new 0 0 316.301 92.102"
	 xml:space="preserve">
<g id="svgGroup">
	
		<path id="_x30_" vector-effect="non-scaling-stroke" fill="#70E61C" stroke="#FFFFFF" stroke-width="0.7087" stroke-linecap="round" d="
		M36.101,92c-6.6,0-12.65-1.533-18.15-4.6S8.084,80.05,4.851,74.55c-2.953-5.063-4.604-10.778-4.807-16.636
		C0.015,57.276,0.001,56.638,0.001,56c-0.031-4.095,0.609-8.166,1.895-12.054C2.653,41.7,3.644,39.54,4.851,37.5
		c3.233-5.467,7.6-9.733,13.1-12.8s11.55-4.6,18.15-4.6s12.65,1.533,18.15,4.6s9.833,7.333,13,12.8
		c2.785,4.853,4.386,10.293,4.671,15.88c0.053,0.873,0.08,1.746,0.079,2.62c0,6.867-1.6,13.05-4.8,18.55
		c-3.2,5.5-7.534,9.784-13,12.851C48.734,90.467,42.701,92,36.101,92z M36.101,76.4c2.087,0.021,4.166-0.279,6.162-0.89
		c2.812-0.88,5.331-2.509,7.288-4.711c2.245-2.521,3.782-5.592,4.453-8.899c0.41-1.939,0.61-3.918,0.597-5.9
		c0.015-2.084-0.203-4.164-0.652-6.2c-0.775-3.396-2.242-6.279-4.398-8.649c-2.824-3.114-6.719-5.048-10.907-5.414
		c-0.845-0.092-1.693-0.138-2.543-0.136c-2.048-0.02-4.089,0.257-6.058,0.822c-2.881,0.839-5.474,2.458-7.492,4.678
		c-3.286,3.579-4.968,8.396-5.047,14.452c-0.002,0.149-0.003,0.299-0.003,0.447c-0.016,2.085,0.203,4.164,0.652,6.2
		c0.775,3.396,2.242,6.28,4.398,8.65C25.917,74.55,30.435,76.4,36.101,76.4z M26.001,14.7c-2.066,0-3.8-0.7-5.2-2.1
		c-1.364-1.346-2.122-3.188-2.099-5.104c0-0.032-0.001-0.064-0.001-0.097c-0.013-1.068,0.201-2.127,0.628-3.106
		c0.358-0.797,0.857-1.522,1.472-2.144c1.319-1.379,3.147-2.156,5.055-2.148C25.904,0.001,25.953,0,26.001,0
		c0.91-0.009,1.814,0.138,2.674,0.433c0.991,0.35,1.888,0.92,2.626,1.668c1.297,1.288,2.045,3.028,2.09,4.855
		c0.007,0.148,0.01,0.296,0.01,0.444c0.013,1.021-0.188,2.033-0.589,2.972c-0.371,0.837-0.901,1.594-1.561,2.229
		C29.818,14,28.068,14.7,26.001,14.7z M46.001,14.7c-2.066,0-3.8-0.7-5.2-2.1c-1.364-1.346-2.122-3.188-2.099-5.104
		c0-0.032-0.001-0.064-0.001-0.097c-0.013-1.068,0.201-2.127,0.628-3.106c0.358-0.797,0.857-1.522,1.472-2.144
		c1.319-1.379,3.147-2.156,5.055-2.148C45.904,0.001,45.953,0,46.001,0c0.91-0.009,1.814,0.138,2.674,0.433
		c0.991,0.35,1.888,0.92,2.626,1.668c1.297,1.288,2.045,3.028,2.09,4.855c0.007,0.148,0.01,0.296,0.01,0.444
		c0.013,1.021-0.188,2.033-0.589,2.972c-0.371,0.837-0.901,1.594-1.561,2.229C49.818,14,48.068,14.7,46.001,14.7z"/>
	
		<path id="_x31_" vector-effect="non-scaling-stroke" fill="#FFFFFF" stroke="#FFFFFF" stroke-width="0.7087" stroke-linecap="round" d="
		M121.201,49.1l-23.7,28.1h24.2v14.1h-43.3V77.7l23.2-28.1h-23V35.5h42.6V49.1z"/>
	
		<path id="_x32_" vector-effect="non-scaling-stroke" fill="#FFFFFF" stroke="#FFFFFF" stroke-width="0.7087" stroke-linecap="round" d="
		M186.4,91.3h-21.199l-17-23.399V91.3h-17.1v-74h17.1v40.9l16.9-22.7h21.1l-23.2,28L186.4,91.3z"/>
	
		<path id="_x33_" vector-effect="non-scaling-stroke" fill="#FFFFFF" stroke="#FFFFFF" stroke-width="0.7087" stroke-linecap="round" d="
		M231.301,43.4v-7.9h17.1v55.8h-17.1V83.4c-1.44,2.228-3.355,4.11-5.607,5.514c-0.438,0.278-0.885,0.54-1.342,0.786
		c-2.018,1.073-4.205,1.789-6.465,2.117c-1.287,0.192-2.586,0.287-3.886,0.283c-4.533,0-8.667-1.184-12.399-3.551
		c-3.734-2.366-6.684-5.733-8.851-10.1c-1.423-2.91-2.378-6.025-2.83-9.233c-0.285-1.959-0.426-3.937-0.42-5.917
		c-0.013-2.551,0.226-5.097,0.714-7.601c0.508-2.602,1.36-5.124,2.536-7.499c1.143-2.327,2.626-4.472,4.399-6.363
		c1.324-1.396,2.819-2.617,4.451-3.637c3.732-2.333,7.899-3.5,12.5-3.5c1.807-0.01,3.609,0.179,5.375,0.564
		c1.734,0.38,3.408,0.998,4.975,1.836c1.596,0.847,3.063,1.915,4.357,3.175C229.764,41.212,230.6,42.261,231.301,43.4z
		 M231.301,63.4c0.012-1.415-0.139-2.827-0.447-4.208c-0.543-2.338-1.577-4.302-3.103-5.893c-2.15-2.326-5.165-3.663-8.333-3.695
		c-0.105-0.003-0.211-0.004-0.316-0.004c-3.4,0-6.283,1.216-8.65,3.649c-1.506,1.57-2.561,3.518-3.051,5.638
		c-0.313,1.258-0.479,2.63-0.498,4.114c0,0.1-0.002,0.199-0.002,0.298c-0.01,1.433,0.144,2.861,0.459,4.259
		c0.482,2.206,1.55,4.241,3.092,5.892c1.239,1.345,2.774,2.383,4.484,3.033c1.334,0.486,2.745,0.729,4.166,0.717
		c3.166,0.053,6.215-1.204,8.426-3.472c0.076-0.075,0.15-0.151,0.224-0.229c1.534-1.62,2.599-3.627,3.082-5.806
		c0.302-1.271,0.458-2.654,0.468-4.149C231.301,63.497,231.301,63.448,231.301,63.4z"/>
	
		<path id="_x34_" vector-effect="non-scaling-stroke" fill="#9747FF" stroke="#FFFFFF" stroke-width="0.7087" stroke-linecap="round" d="
		M316.301,58.7v32.6h-17V61c0.009-1.168-0.101-2.334-0.327-3.479c-0.283-1.383-0.75-2.607-1.399-3.674
		c-0.338-0.555-0.73-1.072-1.174-1.547c-1.933-2.066-4.533-3.1-7.799-3.1c-1.146-0.011-2.289,0.137-3.395,0.436
		c-1.688,0.46-3.215,1.383-4.406,2.664c-1.112,1.211-1.915,2.673-2.34,4.262c-0.297,1.051-0.477,2.204-0.537,3.46
		c-0.016,0.326-0.023,0.652-0.023,0.979v30.3h-17.1V35.5h17.1v7.4c1.551-2.188,3.578-3.997,5.929-5.288
		c0.353-0.197,0.71-0.385,1.071-0.563c2.934-1.433,6.234-2.149,9.9-2.149c2.383-0.023,4.757,0.303,7.046,0.967
		c3.306,0.975,6.282,2.837,8.604,5.383c3.673,3.987,5.616,9.379,5.83,16.174C316.294,57.849,316.301,58.274,316.301,58.7z"/>
</g>
</svg>
